<svg width="18" height="18" viewBox="0 0 18 18" fill="none" xmlns="http://www.w3.org/2000/svg">
<path d="M15.062 16.6685L8.99998 10.6065L2.93798 16.6685C2.83356 16.7785 2.70817 16.8665 2.56921 16.9272C2.43024 16.988 2.28051 17.0203 2.12884 17.0223C1.97718 17.0243 1.82666 16.9959 1.68615 16.9388C1.54565 16.8816 1.418 16.7969 1.31075 16.6897C1.2035 16.5824 1.11882 16.4548 1.06169 16.3143C1.00456 16.1738 0.976146 16.0233 0.978124 15.8716C0.980102 15.7199 1.01243 15.5702 1.07321 15.4312C1.13398 15.2923 1.22197 15.1669 1.33198 15.0625L7.39398 9.00047L1.33198 2.93847C1.1281 2.72366 1.01617 2.43773 1.02003 2.1416C1.02389 1.84547 1.14325 1.56256 1.35266 1.35315C1.56207 1.14373 1.84499 1.02438 2.14112 1.02052C2.43724 1.01665 2.72318 1.12859 2.93798 1.33247L8.99998 7.39447L15.062 1.33247C15.1664 1.22246 15.2918 1.13447 15.4308 1.07369C15.5697 1.01292 15.7195 0.980591 15.8711 0.978612C16.0228 0.976634 16.1733 1.00505 16.3138 1.06218C16.4543 1.1193 16.582 1.20399 16.6892 1.31124C16.7965 1.41849 16.8811 1.54614 16.9383 1.68664C16.9954 1.82715 17.0238 1.97767 17.0218 2.12933C17.0199 2.281 16.9875 2.43073 16.9268 2.56969C16.866 2.70866 16.778 2.83405 16.668 2.93847L10.606 9.00047L16.668 15.0625C16.8719 15.2773 16.9838 15.5632 16.9799 15.8593C16.9761 16.1555 16.8567 16.4384 16.6473 16.6478C16.4379 16.8572 16.155 16.9766 15.8588 16.9804C15.5627 16.9843 15.2768 16.8723 15.062 16.6685Z" fill="#222222"/>
</svg>
